<svg id="image" xmlns="http://www.w3.org/2000/svg" viewBox="0 0 24 24"><title>btn_menu</title><path d="M22.95,4.64a1.75,1.75,0,0,1-1.63,1.85H2.69A1.75,1.75,0,0,1,1.05,4.64h0A1.75,1.75,0,0,1,2.69,2.79H21.31a1.75,1.75,0,0,1,1.63,1.85Z" style="fill:#8c8c8c"/><path d="M22.95,11.85a1.75,1.75,0,0,1-1.63,1.85H2.69a1.75,1.75,0,0,1-1.63-1.85h0A1.75,1.75,0,0,1,2.69,10H21.31a1.75,1.75,0,0,1,1.63,1.85Z" style="fill:#8c8c8c"/><path d="M22.95,19.24a1.75,1.75,0,0,1-1.63,1.85H2.69a1.75,1.75,0,0,1-1.63-1.85h0a1.75,1.75,0,0,1,1.63-1.85H21.31a1.75,1.75,0,0,1,1.63,1.85Z" style="fill:#8c8c8c"/></svg>