<svg id="image" xmlns="http://www.w3.org/2000/svg" viewBox="0 0 24 24"><title>btn_eng</title><path d="M8.24,11.72a2.14,2.14,0,0,1-1.49.57,2,2,0,1,1,0-4,2.12,2.12,0,0,1,1.52.59H9.84v-1H11.2v4.63H9.84v-.85Zm3,2.59c0,1-1.06,1.6-2.74,1.6s-2.73-.59-2.73-1.6,1.06-1.59,2.73-1.59S11.23,13.3,11.23,14.31ZM6.74,11.14a.76.76,0,0,0,.82-.83.76.76,0,0,0-.82-.83.76.76,0,0,0-.82.83A.76.76,0,0,0,6.74,11.14Zm3.15,3.16c0-.39-.45-.55-1.4-.55s-1.39.16-1.39.55.44.55,1.39.55S9.89,14.71,9.89,14.31ZM9.84,10h-1a1.92,1.92,0,0,1,0,.31,2.13,2.13,0,0,1,0,.33h1Z" style="fill:#8c8c8c"/><path d="M19.39,11.8v1.07H16.63v1.2H15.27v-1.2h-3V11.8Zm-5,2.9h4.21v1.08H13.05V13.44h1.36Zm4.09-3.41H13.12v-3H18.5Zm-1.33-2H14.45v.92h2.71Z" style="fill:#8c8c8c"/></svg>