<svg id="image" xmlns="http://www.w3.org/2000/svg" viewBox="0 0 24 24"><title>btn_setting</title><path d="M21.55,13.53V10.47H18.84a7,7,0,0,0-.92-2.22l1.92-1.92L17.67,4.16,15.75,6.08l-.41-.25a7,7,0,0,0-1.26-.53l-.55-.14V2.45H10.47V5.16a7,7,0,0,0-2.22.92L6.33,4.16,4.16,6.33,6.08,8.25a7,7,0,0,0-.92,2.22H2.45v3.07H5.16a7,7,0,0,0,.92,2.22L4.16,17.67l2.17,2.17,1.92-1.92a7,7,0,0,0,2.22.92v2.71h3.07V18.84a7,7,0,0,0,2.22-.92l1.92,1.92,2.17-2.17-1.92-1.92a7,7,0,0,0,.92-2.22ZM12,9a3,3,0,1,1-3,3A3,3,0,0,1,12,9Z" style="fill:#8c8c8c"/></svg>