<svg id="image" xmlns="http://www.w3.org/2000/svg" viewBox="0 0 24 24"><title>btn_edit</title><path d="M20,15.63a3,3,0,1,0,0,4.27A3,3,0,0,0,20,15.63Z" style="fill:none"/><path d="M6.16,14.74a3,3,0,1,0,2.13.88A3,3,0,0,0,6.16,14.74Z" style="fill:none"/><path d="M11.68,12.93h0Z" style="fill:#8c8c8c"/><path d="M11.32,11.41l.68-.68L3.4,2.13c-.36-.36-.56,0-.93.39s7.3,8.61,7.66,9l.93.93,0,0A.92.92,0,0,1,11.32,11.41Z" style="fill:#8c8c8c"/><path d="M20.85,14.75a4.26,4.26,0,0,0-5.79-.21l-2.12-2.12-.31.31a.92.92,0,0,1-.29.2l.15-.07L14.62,15a4.25,4.25,0,1,0,6.23-.23ZM20,19.89a3,3,0,1,1,0-4.27A3,3,0,0,1,20,19.89Z" style="fill:#8c8c8c"/><path d="M12,13a.8.8,0,0,0,.3-.07A.93.93,0,0,1,12,13Z" style="fill:#8c8c8c"/><path d="M12,13h0a.93.93,0,0,1-.32-.06A.8.8,0,0,0,12,13Z" style="fill:#8c8c8c"/><path d="M12.34,12.92h0Z" style="fill:#8c8c8c"/><path d="M11.06,12.42,8.94,14.54a4.25,4.25,0,1,0,.44.44l2.13-2.13.15.07a.92.92,0,0,1-.29-.2ZM8.29,19.89a3,3,0,1,1,0-4.27A3,3,0,0,1,8.29,19.89Z" style="fill:#8c8c8c"/><path d="M12.89,12.37l0,0,.93-.93c.36-.36,8-8.61,7.66-9s-.56-.75-.93-.39L12,10.74l.68.68A.92.92,0,0,1,12.89,12.37Z" style="fill:#8c8c8c"/><path d="M12.94,12.42l0,0a.92.92,0,0,0-.21-1L12,10.74l-.68.68a.92.92,0,0,0-.21,1l0,0,.31.31a.92.92,0,0,0,.29.2h0a.85.85,0,0,0,.64,0h0a.92.92,0,0,0,.29-.2Zm-1,.15a.62.62,0,1,1,.62-.62A.62.62,0,0,1,12,12.57Z" style="fill:#8c8c8c"/></svg>