<svg id="image" xmlns="http://www.w3.org/2000/svg" viewBox="0 0 24 24"><title>btn_baeum</title><path d="M21.53,2.47V21.53H2.47V2.47H21.53m1.39-1.39H1.08V22.92H22.92V1.08Z" style="fill:#8c8c8c"/><path d="M23,23H1V1H23ZM1.14,22.86H22.86V1.14H1.14Zm20.45-1.28H2.41V2.41H21.59ZM2.52,21.48h19v-19h-19Z" style="fill:#8c8c8c"/><path d="M18.57,6.52a1.36,1.36,0,0,0-1.9,0L10.46,14l-.07.09L7.16,11.19a1.34,1.34,0,1,0-1.9,1.9l4.31,3.85a1.36,1.36,0,0,0,1.9,0l6.21-7.46.88-1.06A1.37,1.37,0,0,0,18.57,6.52Z" style="fill:#8c8c8c"/><path d="M10.6,17.38A1.64,1.64,0,0,1,9.54,17L5.23,13.13a1.22,1.22,0,0,1-.4-.87,1.56,1.56,0,0,1,.4-1.11,1.42,1.42,0,0,1,2,0L10.38,14l6.25-7.5a1.15,1.15,0,0,1,.83-.41,1.6,1.6,0,0,1,1.15.4,1.43,1.43,0,0,1,0,2L11.52,17a1.14,1.14,0,0,1-.81.41ZM6.16,10.86a1.14,1.14,0,0,0-.86.37,1.45,1.45,0,0,0-.37,1,1.12,1.12,0,0,0,.37.79L9.61,16.9a1.52,1.52,0,0,0,1.08.37,1,1,0,0,0,.74-.37l7.09-8.52a1.32,1.32,0,0,0,0-1.83,1.49,1.49,0,0,0-1.07-.37,1,1,0,0,0-.75.37l-6.32,7.59L7.13,11.23A1.49,1.49,0,0,0,6.16,10.86Z" style="fill:#8c8c8c"/></svg>