<svg id="image" xmlns="http://www.w3.org/2000/svg" viewBox="0 0 24 24"><title>btn_no_caption</title><polygon points="5.01 13.26 5.01 15.46 13.24 15.46 11.04 13.26 5.01 13.26" style="fill:none"/><polygon points="19.23 15.09 19.23 13.26 17.41 13.26 17.53 13.38 19.23 15.09" style="fill:none"/><polygon points="14.15 16.36 6.21 16.36 6.21 18.56 16.34 18.56 16.26 18.48 14.15 16.36" style="fill:none"/><path d="M6.21,18.56v-2.2h7.93l-.91-.91H5v-2.2h6l-4-4L2.36,4.57a2.31,2.31,0,0,0-.73,1.68V17.74a2.33,2.33,0,0,0,2.32,2.32h13.9l-1.51-1.51Z" style="fill:#8c8c8c"/><path d="M16.26,12.11l1.15,1.15h1.83v1.83l.59.59,2.5,2.5a2.31,2.31,0,0,0,0-.44V6.26a2.33,2.33,0,0,0-2.32-2.32h-12l2.26,2.26Z" style="fill:#8c8c8c"/><polygon points="21.44 18.72 17.77 15.05 16.44 13.72 15.57 12.85 15.13 12.41 14.41 11.69 11.02 8.3 6.25 3.53 3.85 1.13 2.03 2.94 2.74 3.66 9.11 10.03 11.94 12.85 14.13 15.05 14.41 15.32 15.04 15.96 17.24 18.16 18.75 19.66 21.28 22.19 23.09 20.37 21.44 18.72" style="fill:#8c8c8c"/></svg>