<svg id="image" xmlns="http://www.w3.org/2000/svg" viewBox="0 0 562.28 562.28"><title>ic_app_baeum</title><rect x="15.22" y="16.79" width="529.77" height="529.77" rx="111.44" ry="111.44" transform="translate(560.21 563.34) rotate(180)" style="fill:#ef3f4c"/><path d="M396.72,164.21V398.06H162.87V164.21H396.72m17-17H145.87V415.06H413.72V147.21Z" style="fill:#fff"/><path d="M360.36,213.93c-6.09-5.59-17.42-7.08-23.32,0L260.86,305.4l-.89,1.07-39.5-35.25c-6.43-5.74-17.06-6.82-23.32,0-5.76,6.27-6.87,17.18,0,23.32L250,341.72c6.18,5.52,17.36,7.16,23.32,0l76.18-91.46,10.83-13C365.87,230.63,367.33,220.33,360.36,213.93Z" style="fill:#fff"/></svg>