<svg id="image" xmlns="http://www.w3.org/2000/svg" viewBox="0 0 562.28 562.28"><title>ic_app_sjb_sdk</title><rect x="15.22" y="16.79" width="529.77" height="529.77" rx="111.44" ry="111.44" style="fill:#3b3d4f"/><path d="M280.44,469.58l-3.18-1.43a412.46,412.46,0,0,1-65.85-38.71c-19.3-14-34.89-28.37-46-42.64-14.46-18.52-21.94-37.07-21.94-55.15V130h272V331.66c0,18.07-6.48,36.63-20.94,55.15-11.14,14.27-26.15,28.62-45.45,42.64a415.69,415.69,0,0,1-65.64,38.71ZM158.44,146V331.66c0,33.66,33.73,64.93,61.68,85.24a407,407,0,0,0,60.12,35.62,412.39,412.39,0,0,0,59.62-35.76c27.86-20.28,60.58-51.5,60.58-85.1V146Z" style="fill:#fff"/><rect x="194.51" y="217.46" width="181.91" height="25.53" rx="12.77" ry="12.77" style="fill:#00c29d"/><circle cx="330.82" cy="230.23" r="45.36" style="fill:#fff"/><rect x="194.51" y="302.8" width="181.91" height="25.53" rx="12.77" ry="12.77" transform="translate(570.92 631.14) rotate(180)" style="fill:#e13060"/><circle cx="240.1" cy="315.57" r="45.36" style="fill:#fff"/></svg>