<svg id="image" xmlns="http://www.w3.org/2000/svg" viewBox="0 0 48 48"><title>ic_app_orbit_sdk_1</title><rect x="1.5" y="1.5" width="45" height="45" rx="9.38" ry="9.38" style="fill:#fff"/><path d="M37.12,1.65a9.24,9.24,0,0,1,9.23,9.23V37.12a9.24,9.24,0,0,1-9.23,9.23H10.88a9.24,9.24,0,0,1-9.23-9.23V10.88a9.24,9.24,0,0,1,9.23-9.23H37.12m0-.3H10.88a9.53,9.53,0,0,0-9.53,9.53V37.12a9.53,9.53,0,0,0,9.53,9.53H37.12a9.53,9.53,0,0,0,9.53-9.53V10.88a9.53,9.53,0,0,0-9.53-9.53Z" style="fill:#ddd"/><path d="M29,23.85H18.89a2.25,2.25,0,0,0-2.28,2.27v2a2.3,2.3,0,0,0,.68,1.66l.53,4A2.65,2.65,0,0,0,20.34,36H27.5A2.66,2.66,0,0,0,30,33.72l.52-4a2.29,2.29,0,0,0,.68-1.65v-2A2.26,2.26,0,0,0,29,23.85Z" style="fill:#54b1f7"/><path d="M23.48,20.28a3.6,3.6,0,0,1-.3-.44v0h0c-.85-1.43-.61-3.21.78-4.84a8.36,8.36,0,0,0-1.18-1.13,11.32,11.32,0,0,0-1.4-.94c-3.53-2-9.32-.6-9.32-.6h0s1.52,5.77,5,7.9c2.89,1.77,5.44,1.78,6.92.54A3.44,3.44,0,0,1,23.48,20.28Z" style="fill:#e24682"/><path d="M35.84,12.31h0s-5.79-1.43-9.32.6a11.32,11.32,0,0,0-1.4.94A8.35,8.35,0,0,0,23.94,15c1.39,1.63,1.63,3.41.78,4.84h0v0a3.6,3.6,0,0,1-.3.44,3.44,3.44,0,0,1-.46.46c1.49,1.25,4,1.24,6.92-.54,3.47-2.13,5-7.9,5-7.9Z" style="fill:#ffc34a"/></svg>