<svg id="image" xmlns="http://www.w3.org/2000/svg" viewBox="0 0 562.28 562.28"><title>ic_app_orbit_sdk</title><rect x="15.72" y="17.29" width="528.77" height="528.77" rx="110.94" ry="110.94" style="fill:#fff"/><path d="M433.56,17.79A110.44,110.44,0,0,1,544,128.22v306.9A110.44,110.44,0,0,1,433.56,545.56H126.66A110.44,110.44,0,0,1,16.22,435.12V128.22A110.44,110.44,0,0,1,126.66,17.79h306.9m0-1H126.66A111.44,111.44,0,0,0,15.22,128.22v306.9A111.44,111.44,0,0,0,126.66,546.56h306.9A111.44,111.44,0,0,0,545,435.12V128.22A111.44,111.44,0,0,0,433.56,16.79Z" style="fill:#ddd"/><path d="M336,269.49H222.41a25.38,25.38,0,0,0-25.72,25.61v22.43a25.9,25.9,0,0,0,7.65,18.67l6,44.55c2,14.66,14.71,26,28.51,26h80.78c13.79,0,26.63-11.31,28.62-26l5.9-44.59a25.87,25.87,0,0,0,7.71-18.64V295.09A25.48,25.48,0,0,0,336,269.49Z" style="fill:#54b1f7"/><path d="M274.27,229.17a40.56,40.56,0,0,1-3.43-4.92l-.11-.19-.08-.13c-9.58-16.15-6.86-36.23,8.79-54.63a94.24,94.24,0,0,0-13.34-12.75,127.68,127.68,0,0,0-15.79-10.61c-39.83-22.82-105.08-6.74-105.08-6.74a.07.07,0,0,0,0,.05s-.1.07-.1.07,17.11,65,56.23,89c32.55,20,61.31,20.08,78.05,6A38.83,38.83,0,0,1,274.27,229.17Z" style="fill:#e24682"/><path d="M413.62,139.26a.07.07,0,0,0,0-.05s-65.25-16.09-105.08,6.74a127.67,127.67,0,0,0-15.79,10.61,94.22,94.22,0,0,0-13.34,12.75c15.64,18.4,18.37,38.48,8.79,54.63l-.08.13-.11.19a40.58,40.58,0,0,1-3.43,4.92,38.82,38.82,0,0,1-5.17,5.24c16.75,14,45.5,14,78.05-6,39.11-24,56.23-89,56.23-89S413.64,139.25,413.62,139.26Z" style="fill:#ffc34a"/></svg>