<svg id="image" xmlns="http://www.w3.org/2000/svg" viewBox="0 0 562.28 562.28"><title>ic_app_cp_launcher</title><rect x="15.72" y="17.28" width="528.77" height="528.77" rx="110.94" ry="110.94" style="fill:#fff"/><path d="M433.56,17.79A110.44,110.44,0,0,1,544,128.22v306.9A110.44,110.44,0,0,1,433.56,545.56H126.66A110.44,110.44,0,0,1,16.22,435.12V128.22A110.44,110.44,0,0,1,126.66,17.79h306.9m0-1H126.66A111.44,111.44,0,0,0,15.22,128.22v306.9A111.44,111.44,0,0,0,126.66,546.56h306.9A111.44,111.44,0,0,0,545,435.12V128.22A111.44,111.44,0,0,0,433.56,16.79Z" style="fill:#ddd"/><rect x="293.56" y="296.56" width="109" height="109" rx="54.46" ry="54.46" style="fill:#f97228"/><rect x="159.56" y="162.56" width="109" height="109" rx="54.46" ry="54.46" style="fill:#4f6ba8"/><rect x="293.56" y="162.56" width="109" height="109" rx="54.46" ry="54.46" style="fill:#e13060"/><rect x="159.98" y="296.08" width="108.93" height="108.93" rx="54.46" ry="54.46" style="fill:#00c29d"/></svg>