<svg id="image" xmlns="http://www.w3.org/2000/svg" viewBox="0 0 256 256"><title>ic_intro_sjb</title><path d="M128.09,228l-1.88-.85a244.14,244.14,0,0,1-39-22.91C75.81,196,66.58,187.48,60,179c-8.56-11-13-21.94-13-32.64V27H208V146.39c0,10.7-3.84,21.68-12.4,32.64-6.59,8.45-15.48,16.94-26.9,25.24a246.05,246.05,0,0,1-38.85,22.91ZM55.88,36.5V146.39c0,19.92,20,38.44,36.51,50.46A240.94,240.94,0,0,0,128,217.93a244.1,244.1,0,0,0,35.29-21.17c16.49-12,35.86-30.48,35.86-50.37V36.5Z" style="fill:#fff"/><rect x="77.23" y="78.79" width="107.67" height="15.11" rx="7.56" ry="7.56" style="fill:#00c29d"/><circle cx="157.91" cy="86.35" r="26.85" style="fill:#fff"/><rect x="77.23" y="129.31" width="107.67" height="15.11" rx="7.56" ry="7.56" transform="translate(262.13 273.73) rotate(180)" style="fill:#e13060"/><circle cx="104.22" cy="136.87" r="26.85" style="fill:#fff"/></svg>