<svg id="image" xmlns="http://www.w3.org/2000/svg" viewBox="0 0 24 24"><title>btn_kor</title><path d="M9.17,9.75H4.55V8.69H6.18V7.92H7.54v.77H9.17ZM6.86,13.09c-1.14,0-2-.64-2-1.57S5.72,10,6.86,10s2,.65,2,1.56S8,13.09,6.86,13.09ZM7,14.7h4v1.08H5.63V13.45H7Zm-.13-2.65c.39,0,.66-.17.66-.53S7.25,11,6.86,11s-.66.17-.66.53S6.48,12.05,6.86,12.05Zm4.92-1.79v1.12h-1v2.5H9.44V7.94H10.8v2.32Z" style="fill:#8c8c8c"/><path d="M19.39,10.64v1.07H12.28V10.64H17.1a7.11,7.11,0,0,0,.15-1.33H13.13V8.23H18.6v.55a9.26,9.26,0,0,1-.14,1.86Zm-5,4.17h4.36v1H13V13.49H17.2v-.32H13v-1h5.52v2.36H14.41Z" style="fill:#8c8c8c"/></svg>