<svg id="image" xmlns="http://www.w3.org/2000/svg" viewBox="0 0 24 24"><title>btn_sjb</title><path d="M3,1V14.21a6.06,6.06,0,0,0,1.46,3.7,15,15,0,0,0,3,2.79,26.77,26.77,0,0,0,4.28,2.51l.31.14.29-.14a27.08,27.08,0,0,0,4.26-2.51,14.75,14.75,0,0,0,3-2.79,6,6,0,0,0,1.4-3.7V1ZM19.52,2.54V14.21c0,2.07-2.06,4-3.79,5.26a26.47,26.47,0,0,1-3.68,2.22,25.91,25.91,0,0,1-3.71-2.21c-1.76-1.28-3.86-3.23-3.86-5.27V2.54Z" style="fill:#fff"/><rect x="6.16" y="6.88" width="11.69" height="1.64" rx="0.82" ry="0.82" style="fill:#00c29d"/><circle cx="14.91" cy="7.7" r="2.91" style="fill:#fff"/><rect x="6.16" y="12.36" width="11.69" height="1.64" rx="0.82" ry="0.82" transform="translate(24 26.36) rotate(180)" style="fill:#e13060"/><circle cx="9.09" cy="13.18" r="2.91" style="fill:#fff"/></svg>