<svg id="image" xmlns="http://www.w3.org/2000/svg" viewBox="0 0 24 24"><title>btn_help</title><path d="M12,3.27A8.73,8.73,0,1,1,3.27,12,8.74,8.74,0,0,1,12,3.27m0-2.5A11.23,11.23,0,1,0,23.23,12,11.23,11.23,0,0,0,12,.77Z" style="fill:#8c8c8c"/><circle cx="12" cy="16.13" r="1.2" style="fill:#8c8c8c"/><path d="M13,13.74H11v-1a2.71,2.71,0,0,1,1.69-2.44,1.31,1.31,0,0,0,.83-1.17A1.47,1.47,0,0,0,12,7.75a1.43,1.43,0,0,0-1.52,1.32h-2A3.43,3.43,0,0,1,12,5.75a3.47,3.47,0,0,1,3.52,3.32,3.33,3.33,0,0,1-2,3,.77.77,0,0,0-.52.62Z" style="fill:#8c8c8c"/></svg>