<svg id="image" xmlns="http://www.w3.org/2000/svg" viewBox="0 0 24 24"><title>btn_kor_eng</title><path d="M7.57,9.75H2.95V8.69H4.58V7.92H5.94v.77H7.57ZM5.26,13.09c-1.14,0-2-.64-2-1.57S4.12,10,5.26,10s2,.65,2,1.56S6.4,13.09,5.26,13.09Zm.13,1.61h4v1.08H4V13.45H5.38Zm-.13-2.65c.39,0,.66-.17.66-.53S5.64,11,5.26,11s-.66.17-.66.53S4.87,12.05,5.26,12.05Zm4.92-1.79v1.12h-1v2.5H7.84V7.94H9.19v2.32Z" style="fill:#8c8c8c"/><path d="M12.34,8.2h1l-1.84,8.44h-1Z" style="fill:#8c8c8c"/><path d="M17.57,11.72a2.14,2.14,0,0,1-1.49.57,2,2,0,1,1,0-4,2.12,2.12,0,0,1,1.52.59h1.58v-1h1.36v4.63H19.18v-.85Zm3,2.59c0,1-1.06,1.6-2.74,1.6s-2.73-.59-2.73-1.6,1.06-1.59,2.73-1.59S20.57,13.3,20.57,14.31Zm-4.49-3.16a.76.76,0,0,0,.82-.83.82.82,0,1,0-1.64,0A.76.76,0,0,0,16.08,11.14Zm3.15,3.16c0-.39-.45-.55-1.4-.55s-1.39.16-1.39.55.44.55,1.39.55S19.23,14.71,19.23,14.31ZM19.18,10h-1a1.92,1.92,0,0,1,0,.31,2.13,2.13,0,0,1,0,.33h1Z" style="fill:#8c8c8c"/></svg>