<svg id="image" xmlns="http://www.w3.org/2000/svg" viewBox="0 0 24 24"><title>btn_heart_empty</title><path d="M16.37,5.2c2.1,0,3.35,1.47,3.35,3.94S16.33,15,13.34,18L11.88,19.5l-.68-.66C8,15.7,4.28,12.14,4.28,8.68A3.26,3.26,0,0,1,7.54,5.2c1.7,0,2.4.9,3,2.36l0,.1L11,9a1,1,0,0,0,1.91,0l.49-1.34c.58-1.59,1.26-2.52,3-2.52m0-1.5c-2.83,0-3.82,1.89-4.4,3.51l0-.14C11.33,5.53,10.29,3.7,7.54,3.7a4.76,4.76,0,0,0-4.76,5c0,4.51,4.73,8.63,8.41,12.24a1,1,0,0,0,1.44,0c3.7-3.85,8.6-8.12,8.6-11.76S19,3.7,16.37,3.7Z" style="fill:#8c8c8c"/></svg>