<svg id="image" xmlns="http://www.w3.org/2000/svg" viewBox="0 0 24 24"><title>btn_play_repeat</title><path d="M23.42,15.48l-2.71-4.7L18,15.48H19.8v1.8c0,.87-1,1.6-2.18,1.6H6.38c-1.18,0-2.18-.73-2.18-1.6V14.34H2.39v2.94a3.74,3.74,0,0,0,4,3.41H17.62a3.74,3.74,0,0,0,4-3.41v-1.8Z" style="fill:#8c8c8c"/><path d="M3.3,13.48,6,8.79H4.2V7c0-.87,1-1.6,2.18-1.6H17.62c1.18,0,2.18.73,2.18,1.6V9.92h1.81V7a3.74,3.74,0,0,0-4-3.41H6.38A3.74,3.74,0,0,0,2.39,7v1.8H.58Z" style="fill:#8c8c8c"/><polygon points="13.38 16.08 13.38 7.83 13.2 7.83 9.58 9.08 9.58 10.53 11.46 9.98 11.46 16.08 13.38 16.08" style="fill:#8c8c8c"/></svg>