<svg id="image" xmlns="http://www.w3.org/2000/svg" viewBox="0 0 24 24"><title>btn_share</title><path d="M19.53,15.28a3.28,3.28,0,1,0,3.28,3.28A3.28,3.28,0,0,0,19.53,15.28Z" style="fill:#8c8c8c"/><path d="M4.47,15.28a3.28,3.28,0,1,0,3.28,3.28A3.28,3.28,0,0,0,4.47,15.28Z" style="fill:#8c8c8c"/><path d="M10.45,9.21a4.09,4.09,0,0,1-1.09-.66L5.78,14.76a4.07,4.07,0,0,1,1.14.57Z" style="fill:#8c8c8c"/><path d="M15.49,17.91a4.09,4.09,0,0,0,0,1.27l-7.17,0a4.07,4.07,0,0,0,.08-1.27Z" style="fill:#8c8c8c"/><path d="M12,2.15a3.28,3.28,0,1,0,3.28,3.28A3.28,3.28,0,0,0,12,2.15Z" style="fill:#8c8c8c"/></svg>