<svg id="image" xmlns="http://www.w3.org/2000/svg" viewBox="0 0 48 48"><title>ic_app_sjb</title><rect x="1.28" y="1.28" width="45.37" height="45.37" rx="9.54" ry="9.54" style="fill:#3b3d4f"/><path d="M24,38l-.25-.11a32,32,0,0,1-5.11-3,17.77,17.77,0,0,1-3.57-3.31,7,7,0,0,1-1.7-4.28V11.63H34.51V27.27a6.9,6.9,0,0,1-1.62,4.28,17.42,17.42,0,0,1-3.52,3.31,32.23,32.23,0,0,1-5.09,3ZM14.58,12.87v14.4c0,2.61,2.62,5,4.78,6.61A31.56,31.56,0,0,0,24,36.64a32,32,0,0,0,4.62-2.77c2.16-1.57,4.7-4,4.7-6.6V12.87Z" style="fill:#fff"/><rect x="17.38" y="18.42" width="14.1" height="1.98" rx="0.99" ry="0.99" style="fill:#00c29d"/><circle cx="27.95" cy="19.4" r="3.52" style="fill:#fff"/><rect x="17.38" y="25.03" width="14.1" height="1.98" rx="0.99" ry="0.99" transform="translate(48.86 52.04) rotate(-180)" style="fill:#e13060"/><circle cx="20.91" cy="26.02" r="3.52" style="fill:#fff"/></svg>