<svg id="image" xmlns="http://www.w3.org/2000/svg" viewBox="0 0 48 48"><title>ic_app_cp_launcher_1</title><rect x="1.43" y="1.43" width="45.07" height="45.07" rx="9.39" ry="9.39" style="fill:#fff"/><path d="M37.11,1.58a9.25,9.25,0,0,1,9.24,9.24V37.11a9.25,9.25,0,0,1-9.24,9.24H10.82a9.25,9.25,0,0,1-9.24-9.24V10.82a9.25,9.25,0,0,1,9.24-9.24H37.11m0-.3H10.82a9.54,9.54,0,0,0-9.54,9.54V37.11a9.54,9.54,0,0,0,9.54,9.54H37.11a9.54,9.54,0,0,0,9.54-9.54V10.82a9.54,9.54,0,0,0-9.54-9.54Z" style="fill:#ddd"/><rect x="25.03" y="24.96" width="9.02" height="9.02" rx="4.51" ry="4.51" style="fill:#f97228"/><rect x="13.95" y="13.88" width="9.02" height="9.02" rx="4.51" ry="4.51" style="fill:#4f6ba8"/><rect x="25.03" y="13.88" width="9.02" height="9.02" rx="4.51" ry="4.51" style="fill:#e13060"/><rect x="13.98" y="24.92" width="9.01" height="9.01" rx="4.51" ry="4.51" style="fill:#00c29d"/></svg>