<svg id="image" xmlns="http://www.w3.org/2000/svg" viewBox="0 0 48 48"><title>ic_app_baeum_1</title><rect x="1.28" y="1.28" width="45.37" height="45.37" rx="9.54" ry="9.54" transform="translate(47.93 47.93) rotate(180)" style="fill:#ef3f4c"/><path d="M34.73,13.15V34.68H13.2V13.15H34.73m1.57-1.57H11.63V36.25H36.29V11.59Z" style="fill:#fff"/><path d="M31.38,17.73a1.54,1.54,0,0,0-2.15,0l-7,8.42-.08.1L18.5,23a1.52,1.52,0,0,0-2.15,2.15l4.87,4.34a1.54,1.54,0,0,0,2.15,0l7-8.42,1-1.2A1.55,1.55,0,0,0,31.38,17.73Z" style="fill:#fff"/></svg>