<svg id="image" xmlns="http://www.w3.org/2000/svg" viewBox="0 0 256 256"><title>ic_intro_cp_c</title><path d="M169.6,127.06H86A18.67,18.67,0,0,0,67.12,145.9v16.5a19.06,19.06,0,0,0,5.63,13.74l4.38,32.78C78.6,219.7,88,228,98.1,228h59.43c10.15,0,19.59-8.32,21.06-19.11l4.34-32.8a19,19,0,0,0,5.67-13.71V145.9A18.75,18.75,0,0,0,169.6,127.06Z" style="fill:#54b1f7"/><path d="M124.2,97.4a29.84,29.84,0,0,1-2.53-3.62l-.08-.14-.06-.1c-7.05-11.88-5-26.65,6.47-40.19A69.33,69.33,0,0,0,118.18,44a93.94,93.94,0,0,0-11.62-7.81c-29.3-16.79-77.31-5-77.31-5a0,0,0,0,0,0,0s-.07.05-.07.05S41.8,79.14,70.57,96.82c23.95,14.71,45.1,14.77,57.43,4.44A28.57,28.57,0,0,1,124.2,97.4Z" style="fill:#e24682"/><path d="M226.72,31.25a0,0,0,0,0,0,0s-48-11.83-77.31,5A93.93,93.93,0,0,0,137.82,44,69.32,69.32,0,0,0,128,53.36c11.51,13.53,13.52,28.31,6.47,40.19l-.06.1-.08.14a29.85,29.85,0,0,1-2.53,3.62,28.56,28.56,0,0,1-3.8,3.86c12.32,10.33,33.48,10.27,57.43-4.44C214.2,79.14,226.79,31.3,226.79,31.3S226.74,31.24,226.72,31.25Z" style="fill:#ffc34a"/></svg>