<svg id="image" xmlns="http://www.w3.org/2000/svg" viewBox="0 0 24 24"><title>img_cp_c</title><path d="M16.65,11.94H7.31A2.09,2.09,0,0,0,5.19,14v1.85a2.13,2.13,0,0,0,.63,1.54l.49,3.67a2.46,2.46,0,0,0,2.35,2.14H15.3a2.47,2.47,0,0,0,2.36-2.14l.49-3.67a2.13,2.13,0,0,0,.63-1.53V14A2.1,2.1,0,0,0,16.65,11.94Z" style="fill:#54b1f7"/><path d="M11.57,8.62a3.34,3.34,0,0,1-.28-.4v0h0c-.79-1.33-.56-3,.72-4.5a7.76,7.76,0,0,0-1.1-1,10.51,10.51,0,0,0-1.3-.87C6.32-.1,1,1.22,1,1.22h0S2.36,6.58,5.58,8.56c2.68,1.65,5,1.65,6.42.5A3.2,3.2,0,0,1,11.57,8.62Z" style="fill:#e24682"/><path d="M23,1.22h0S17.68-.1,14.4,1.77a10.51,10.51,0,0,0-1.3.87,7.75,7.75,0,0,0-1.1,1c1.29,1.51,1.51,3.17.72,4.5h0v0a3.34,3.34,0,0,1-.28.4,3.19,3.19,0,0,1-.43.43c1.38,1.16,3.74,1.15,6.42-.5,3.22-2,4.63-7.33,4.63-7.33Z" style="fill:#ffc34a"/></svg>